<svg id="Layer_1" data-name="Layer 1" xmlns="http://www.w3.org/2000/svg" xmlns:xlink="http://www.w3.org/1999/xlink" viewBox="0 0 1920 1080"><defs><style>.cls-1,.cls-2{stroke:#fff;}.cls-1,.cls-10,.cls-2{stroke-miterlimit:10;}.cls-1{fill:url(#linear-gradient);}.cls-2{fill:url(#linear-gradient-2);}.cls-10,.cls-3{fill:none;}.cls-4{fill:url(#linear-gradient-3);}.cls-5{fill:url(#radial-gradient);}.cls-6{opacity:0.34;}.cls-7{fill:#abedff;}.cls-8{mask:url(#mask);}.cls-9{clip-path:url(#clip-path);}.cls-10{stroke:#abedff;}.cls-11{mask:url(#mask-2);}.cls-12{mask:url(#mask-3);}.cls-13{clip-path:url(#clip-path-3);}.cls-14{mask:url(#mask-4);}.cls-15{clip-path:url(#clip-path-4);}</style><linearGradient id="linear-gradient" x1="960" y1="-0.5" x2="960" y2="1079.5" gradientUnits="userSpaceOnUse"><stop offset="0.88"/><stop offset="1" stop-color="#fff"/></linearGradient><linearGradient id="linear-gradient-2" x1="960" y1="-0.5" x2="960" y2="1079.5" gradientTransform="matrix(1, 0, 0, -1, 0, 1079)" gradientUnits="userSpaceOnUse"><stop offset="0.86"/><stop offset="1" stop-color="#fff"/></linearGradient><linearGradient id="linear-gradient-3" x1="960" x2="960" y2="1080" gradientUnits="userSpaceOnUse"><stop offset="0" stop-color="#000d17"/><stop offset="0.69" stop-color="#002645"/><stop offset="0.94" stop-color="#000517"/><stop offset="1" stop-color="#00245c"/></linearGradient><radialGradient id="radial-gradient" cx="960" cy="540" r="778.85" gradientUnits="userSpaceOnUse"><stop offset="0" stop-color="#000417"/><stop offset="1" stop-opacity="0"/></radialGradient><mask id="mask" x="-247.26" y="-1" width="3253.27" height="2117.76" maskUnits="userSpaceOnUse"><rect class="cls-1" x="0.5" y="-0.5" width="1919" height="1080"/></mask><clipPath id="clip-path"><rect class="cls-3" x="0.5" y="-0.5" width="1922" height="1080"/></clipPath><mask id="mask-2" x="-247.26" y="-1037.76" width="3253.27" height="2117.76" maskUnits="userSpaceOnUse"><rect class="cls-2" x="0.5" y="-0.5" width="1919" height="1080"/></mask><mask id="mask-3" x="1845.74" y="-1357" width="2169.76" height="2117.76" maskUnits="userSpaceOnUse"/><clipPath id="clip-path-3"><rect class="cls-3" x="2093.5" y="-1356.5" width="1922" height="1080"/></clipPath><mask id="mask-4" x="-247.26" y="-1357" width="3253.52" height="2117.76" maskUnits="userSpaceOnUse"/><clipPath id="clip-path-4"><rect class="cls-3" x="0.5" y="-1356.5" width="1922" height="1080"/></clipPath></defs><title>background_no_arc</title><rect class="cls-4" width="1920" height="1080"/><rect class="cls-5" width="1920" height="1080"/><g class="cls-6"><path class="cls-7" d="M119.25,107.73a1.5,1.5,0,0,0,0-3,1.5,1.5,0,0,0,0,3Z"/></g><g class="cls-6"><path class="cls-7" d="M317.88,205a1.5,1.5,0,0,0,0-3,1.5,1.5,0,0,0,0,3Z"/></g><g class="cls-6"><path class="cls-7" d="M126,370.62V372a1.5,1.5,0,0,0,3,0v-1.37a1.5,1.5,0,0,0-3,0Z"/></g><g class="cls-6"><path class="cls-7" d="M201.31,228.15v1.37a1.51,1.51,0,0,0,1.5,1.5,1.53,1.53,0,0,0,1.5-1.5v-1.37a1.5,1.5,0,0,0-3,0Z"/></g><g class="cls-6"><path class="cls-7" d="M285,389.92a1.5,1.5,0,0,0,0-3,1.5,1.5,0,0,0,0,3Z"/></g><g class="cls-6"><path class="cls-7" d="M122,581.71a1.5,1.5,0,0,0,0-3,1.5,1.5,0,0,0,0,3Z"/></g><g class="cls-6"><path class="cls-7" d="M383.63,577.34h-1.37a1.5,1.5,0,0,0,0,3h1.37a1.5,1.5,0,0,0,0-3Z"/></g><g class="cls-6"><path class="cls-7" d="M401.31,769.25v1.37a1.5,1.5,0,0,0,3,0v-1.37a1.5,1.5,0,0,0-3,0Z"/></g><g class="cls-6"><path class="cls-7" d="M202.81,869.38a1.5,1.5,0,0,0,0-3,1.5,1.5,0,0,0,0,3Z"/></g><g class="cls-6"><path class="cls-7" d="M704.18,472.12h1.37a1.5,1.5,0,0,0,0-3h-1.37a1.5,1.5,0,0,0,0,3Z"/></g><g class="cls-6"><path class="cls-7" d="M519.25,381.71a1.5,1.5,0,0,0,0-3,1.5,1.5,0,0,0,0,3Z"/></g><g class="cls-6"><path class="cls-7" d="M589.38,160.39a2,2,0,1,0,3.59,0,1.5,1.5,0,1,0-2.59,1.51,1.24,1.24,0,0,1,.7-1.71c-.31.11.21,0,.1,0-.32,0,.34.09.1,0a1.26,1.26,0,0,1,.69,1.72,1.5,1.5,0,1,0-2.59-1.51Z"/></g><g class="cls-6"><path class="cls-7" d="M445.27,95.4a1.5,1.5,0,0,0,0-3,1.5,1.5,0,0,0,0,3Z"/></g><g class="cls-6"><path class="cls-7" d="M569.93,637.87a1.5,1.5,0,0,0,0-3,1.5,1.5,0,0,0,0,3Z"/></g><g class="cls-6"><path class="cls-7" d="M78.15,755.68a1.5,1.5,0,0,0,0-3,1.5,1.5,0,0,0,0,3Z"/></g><g class="cls-6"><path class="cls-7" d="M722,769.38a1.5,1.5,0,0,0,0-3,1.5,1.5,0,0,0,0,3Z"/></g><g class="cls-6"><path class="cls-7" d="M1635.26,205a1.5,1.5,0,0,0,0-3,1.5,1.5,0,0,0,0,3Z"/></g><g class="cls-6"><path class="cls-7" d="M1824.17,370.62V372a1.5,1.5,0,0,0,3,0v-1.37a1.5,1.5,0,1,0-3,0Z"/></g><g class="cls-6"><path class="cls-7" d="M1748.83,228.15v1.37a1.51,1.51,0,0,0,1.5,1.5,1.53,1.53,0,0,0,1.5-1.5v-1.37a1.5,1.5,0,0,0-3,0Z"/></g><g class="cls-6"><path class="cls-7" d="M1668.14,389.92a1.5,1.5,0,0,0,0-3,1.5,1.5,0,0,0,0,3Z"/></g><g class="cls-6"><path class="cls-7" d="M1831.15,581.71a1.5,1.5,0,0,0,0-3,1.5,1.5,0,0,0,0,3Z"/></g><g class="cls-6"><path class="cls-7" d="M1569.51,580.34h1.37a1.5,1.5,0,0,0,0-3h-1.37a1.5,1.5,0,0,0,0,3Z"/></g><g class="cls-6"><path class="cls-7" d="M1548.83,769.25v1.37a1.5,1.5,0,0,0,3,0v-1.37a1.5,1.5,0,0,0-3,0Z"/></g><g class="cls-6"><path class="cls-7" d="M1750.33,869.38a1.5,1.5,0,0,0,0-3,1.5,1.5,0,0,0,0,3Z"/></g><g class="cls-6"><path class="cls-7" d="M1249,469.12h-1.37a1.51,1.51,0,0,0-1.5,1.5,1.53,1.53,0,0,0,1.5,1.5H1249a1.5,1.5,0,0,0,0-3Z"/></g><g class="cls-6"><path class="cls-7" d="M1433.89,381.71a1.5,1.5,0,0,0,0-3,1.5,1.5,0,0,0,0,3Z"/></g><g class="cls-6"><path class="cls-7" d="M1361.16,161.9a1.25,1.25,0,0,1,.7-1.72c-.24.08.42,0,.09,0-.1,0,.42.12.1,0a1.24,1.24,0,0,1,.71,1.71,1.5,1.5,0,0,0-2.6-1.51,2,2,0,1,0,3.6,0,1.5,1.5,0,0,0-2.6,1.51Z"/></g><g class="cls-6"><path class="cls-7" d="M1507.86,95.4a1.5,1.5,0,0,0,0-3,1.5,1.5,0,0,0,0,3Z"/></g><g class="cls-6"><path class="cls-7" d="M1383.21,637.87a1.5,1.5,0,0,0,0-3,1.5,1.5,0,0,0,0,3Z"/></g><g class="cls-6"><path class="cls-7" d="M1875,755.68a1.5,1.5,0,0,0,0-3,1.5,1.5,0,0,0,0,3Z"/></g><g class="cls-6"><path class="cls-7" d="M1231.15,769.38a1.5,1.5,0,0,0,0-3,1.5,1.5,0,0,0,0,3Z"/></g><g class="cls-6"><path class="cls-7" d="M1207.89,107.73a1.5,1.5,0,0,0,0-3,1.5,1.5,0,0,0,0,3Z"/></g><g class="cls-6"><path class="cls-7" d="M1009.26,205a1.5,1.5,0,0,0,0-3,1.5,1.5,0,0,0,0,3Z"/></g><g class="cls-6"><path class="cls-7" d="M1198.17,370.62V372a1.5,1.5,0,0,0,3,0v-1.37a1.5,1.5,0,1,0-3,0Z"/></g><g class="cls-6"><path class="cls-7" d="M1122.83,228.15v1.37a1.51,1.51,0,0,0,1.5,1.5,1.53,1.53,0,0,0,1.5-1.5v-1.37a1.5,1.5,0,0,0-3,0Z"/></g><g class="cls-6"><path class="cls-7" d="M1042.14,389.92a1.5,1.5,0,0,0,0-3,1.5,1.5,0,0,0,0,3Z"/></g><g class="cls-6"><path class="cls-7" d="M1205.15,581.71a1.5,1.5,0,0,0,0-3,1.5,1.5,0,0,0,0,3Z"/></g><g class="cls-6"><path class="cls-7" d="M943.51,580.34h1.37a1.5,1.5,0,0,0,0-3h-1.37a1.5,1.5,0,0,0,0,3Z"/></g><g class="cls-6"><path class="cls-7" d="M922.83,769.25v1.37a1.5,1.5,0,0,0,3,0v-1.37a1.5,1.5,0,0,0-3,0Z"/></g><g class="cls-6"><path class="cls-7" d="M1124.33,869.38a1.5,1.5,0,0,0,0-3,1.5,1.5,0,0,0,0,3Z"/></g><g class="cls-6"><path class="cls-7" d="M623,469.12h-1.37a1.51,1.51,0,0,0-1.5,1.5,1.53,1.53,0,0,0,1.5,1.5H623a1.5,1.5,0,0,0,0-3Z"/></g><g class="cls-6"><path class="cls-7" d="M807.89,381.71a1.5,1.5,0,0,0,0-3,1.5,1.5,0,0,0,0,3Z"/></g><g class="cls-6"><path class="cls-7" d="M735.16,161.9a1.25,1.25,0,0,1,.7-1.72c-.24.08.42,0,.09,0-.1,0,.42.12.1,0a1.24,1.24,0,0,1,.71,1.71,1.5,1.5,0,0,0-2.6-1.51,2,2,0,1,0,3.6,0,1.5,1.5,0,0,0-2.6,1.51Z"/></g><g class="cls-6"><path class="cls-7" d="M881.86,95.4a1.5,1.5,0,0,0,0-3,1.5,1.5,0,0,0,0,3Z"/></g><g class="cls-6"><path class="cls-7" d="M757.21,637.87a1.5,1.5,0,0,0,0-3,1.5,1.5,0,0,0,0,3Z"/></g><g class="cls-6"><path class="cls-7" d="M1249,755.68a1.5,1.5,0,0,0,0-3,1.5,1.5,0,0,0,0,3Z"/></g><g class="cls-6"><path class="cls-7" d="M605.15,769.38a1.5,1.5,0,0,0,0-3,1.5,1.5,0,0,0,0,3Z"/></g><g class="cls-8"><g class="cls-9"><line class="cls-10" x1="945.28" y1="851.87" x2="3005.95" y2="1095.71"/><line class="cls-10" x1="888.51" y1="856.11" x2="2942.78" y2="1144.32"/><line class="cls-10" x1="831.73" y1="860.34" x2="2879.6" y2="1192.92"/><line class="cls-10" x1="774.96" y1="864.58" x2="2816.43" y2="1241.52"/><line class="cls-10" x1="718.18" y1="868.81" x2="2753.26" y2="1290.12"/><line class="cls-10" x1="661.41" y1="873.05" x2="2690.08" y2="1338.72"/><line class="cls-10" x1="604.63" y1="877.28" x2="2626.91" y2="1387.32"/><line class="cls-10" x1="547.86" y1="881.52" x2="2563.73" y2="1435.92"/><line class="cls-10" x1="491.08" y1="885.75" x2="2500.56" y2="1484.52"/><line class="cls-10" x1="434.31" y1="889.99" x2="2437.38" y2="1533.12"/><line class="cls-10" x1="377.53" y1="894.23" x2="2374.21" y2="1581.72"/><line class="cls-10" x1="320.75" y1="898.46" x2="2311.04" y2="1630.33"/><line class="cls-10" x1="263.98" y1="902.7" x2="2247.86" y2="1678.93"/><line class="cls-10" x1="207.2" y1="906.93" x2="2184.69" y2="1727.53"/><line class="cls-10" x1="150.43" y1="911.17" x2="2121.51" y2="1776.13"/><line class="cls-10" x1="93.65" y1="915.4" x2="2058.34" y2="1824.73"/><line class="cls-10" x1="36.88" y1="919.64" x2="1995.16" y2="1873.33"/><line class="cls-10" x1="-19.9" y1="923.87" x2="1931.99" y2="1921.93"/><line class="cls-10" x1="-76.67" y1="928.11" x2="1868.81" y2="1970.53"/><line class="cls-10" x1="-133.45" y1="932.34" x2="1805.64" y2="2019.13"/><line class="cls-10" x1="-190.22" y1="936.58" x2="1742.47" y2="2067.74"/><line class="cls-10" x1="-247" y1="940.82" x2="1679.29" y2="2116.34"/><line class="cls-10" x1="2868.57" y1="1079.46" x2="1552.82" y2="2036.5"/><line class="cls-10" x1="2799.87" y1="1071.33" x2="1488.57" y2="1997.37"/><line class="cls-10" x1="2731.18" y1="1063.2" x2="1424.32" y2="1958.23"/><line class="cls-10" x1="2662.49" y1="1055.07" x2="1360.06" y2="1919.1"/><line class="cls-10" x1="2593.79" y1="1046.94" x2="1295.81" y2="1879.96"/><line class="cls-10" x1="2525.1" y1="1038.81" x2="1231.56" y2="1840.83"/><line class="cls-10" x1="2456.41" y1="1030.69" x2="1167.31" y2="1801.69"/><line class="cls-10" x1="2387.72" y1="1022.56" x2="1103.05" y2="1762.56"/><line class="cls-10" x1="2319.02" y1="1014.43" x2="1038.8" y2="1723.42"/><line class="cls-10" x1="2250.33" y1="1006.3" x2="974.55" y2="1684.29"/><line class="cls-10" x1="2181.64" y1="998.17" x2="910.3" y2="1645.15"/><line class="cls-10" x1="2112.94" y1="990.04" x2="846.04" y2="1606.02"/><line class="cls-10" x1="2044.25" y1="981.91" x2="781.79" y2="1566.88"/><line class="cls-10" x1="1975.56" y1="973.79" x2="717.54" y2="1527.75"/><line class="cls-10" x1="1906.87" y1="965.66" x2="653.29" y2="1488.61"/><line class="cls-10" x1="1838.17" y1="957.53" x2="589.03" y2="1449.48"/><line class="cls-10" x1="1769.48" y1="949.4" x2="524.78" y2="1410.34"/><line class="cls-10" x1="1700.79" y1="941.27" x2="460.53" y2="1371.21"/><line class="cls-10" x1="1632.09" y1="933.14" x2="396.28" y2="1332.07"/><line class="cls-10" x1="1563.4" y1="925.01" x2="332.02" y2="1292.94"/><line class="cls-10" x1="1494.71" y1="916.89" x2="267.77" y2="1253.8"/><line class="cls-10" x1="1426.01" y1="908.76" x2="203.52" y2="1214.67"/><line class="cls-10" x1="1357.32" y1="900.63" x2="139.27" y2="1175.53"/><line class="cls-10" x1="1288.63" y1="892.5" x2="75.01" y2="1136.4"/><line class="cls-10" x1="1219.94" y1="884.37" x2="10.76" y2="1097.27"/><line class="cls-10" x1="1151.24" y1="876.24" x2="-53.49" y2="1058.13"/><line class="cls-10" x1="1082.55" y1="868.11" x2="-117.74" y2="1019"/><line class="cls-10" x1="1013.86" y1="859.98" x2="-181.99" y2="979.86"/><line class="cls-10" x1="945.16" y1="851.86" x2="-246.25" y2="940.73"/></g></g><g class="cls-11"><g class="cls-9"><line class="cls-10" x1="945.28" y1="227.13" x2="3005.95" y2="-16.71"/><line class="cls-10" x1="888.51" y1="222.89" x2="2942.78" y2="-65.32"/><line class="cls-10" x1="831.73" y1="218.66" x2="2879.6" y2="-113.92"/><line class="cls-10" x1="774.96" y1="214.42" x2="2816.43" y2="-162.52"/><line class="cls-10" x1="718.18" y1="210.19" x2="2753.26" y2="-211.12"/><line class="cls-10" x1="661.41" y1="205.95" x2="2690.08" y2="-259.72"/><line class="cls-10" x1="604.63" y1="201.72" x2="2626.91" y2="-308.32"/><line class="cls-10" x1="547.86" y1="197.48" x2="2563.73" y2="-356.92"/><line class="cls-10" x1="491.08" y1="193.25" x2="2500.56" y2="-405.52"/><line class="cls-10" x1="434.31" y1="189.01" x2="2437.38" y2="-454.12"/><line class="cls-10" x1="377.53" y1="184.77" x2="2374.21" y2="-502.72"/><line class="cls-10" x1="320.75" y1="180.54" x2="2311.04" y2="-551.33"/><line class="cls-10" x1="263.98" y1="176.3" x2="2247.86" y2="-599.93"/><line class="cls-10" x1="207.2" y1="172.07" x2="2184.69" y2="-648.53"/><line class="cls-10" x1="150.43" y1="167.83" x2="2121.51" y2="-697.13"/><line class="cls-10" x1="93.65" y1="163.6" x2="2058.34" y2="-745.73"/><line class="cls-10" x1="36.88" y1="159.36" x2="1995.16" y2="-794.33"/><line class="cls-10" x1="-19.9" y1="155.13" x2="1931.99" y2="-842.93"/><line class="cls-10" x1="-76.67" y1="150.89" x2="1868.81" y2="-891.53"/><line class="cls-10" x1="-133.45" y1="146.66" x2="1805.64" y2="-940.13"/><line class="cls-10" x1="-190.22" y1="142.42" x2="1742.47" y2="-988.74"/><line class="cls-10" x1="-247" y1="138.18" x2="1679.29" y2="-1037.34"/><line class="cls-10" x1="2799.87" y1="7.67" x2="1488.57" y2="-918.37"/><line class="cls-10" x1="2731.18" y1="15.8" x2="1424.32" y2="-879.23"/><line class="cls-10" x1="2662.49" y1="23.93" x2="1360.06" y2="-840.1"/><line class="cls-10" x1="2593.79" y1="32.06" x2="1295.81" y2="-800.96"/><line class="cls-10" x1="2525.1" y1="40.19" x2="1231.56" y2="-761.83"/><line class="cls-10" x1="2456.41" y1="48.31" x2="1167.31" y2="-722.69"/><line class="cls-10" x1="2387.72" y1="56.44" x2="1103.05" y2="-683.56"/><line class="cls-10" x1="2319.02" y1="64.57" x2="1038.8" y2="-644.42"/><line class="cls-10" x1="2250.33" y1="72.7" x2="974.55" y2="-605.29"/><line class="cls-10" x1="2181.64" y1="80.83" x2="910.3" y2="-566.15"/><line class="cls-10" x1="2112.94" y1="88.96" x2="846.04" y2="-527.02"/><line class="cls-10" x1="2044.25" y1="97.09" x2="781.79" y2="-487.88"/><line class="cls-10" x1="1975.56" y1="105.21" x2="717.54" y2="-448.75"/><line class="cls-10" x1="1906.87" y1="113.34" x2="653.29" y2="-409.61"/><line class="cls-10" x1="1838.17" y1="121.47" x2="589.03" y2="-370.48"/><line class="cls-10" x1="1769.48" y1="129.6" x2="524.78" y2="-331.34"/><line class="cls-10" x1="1700.79" y1="137.73" x2="460.53" y2="-292.21"/><line class="cls-10" x1="1632.09" y1="145.86" x2="396.28" y2="-253.07"/><line class="cls-10" x1="1563.4" y1="153.99" x2="332.02" y2="-213.94"/><line class="cls-10" x1="1494.71" y1="162.11" x2="267.77" y2="-174.8"/><line class="cls-10" x1="1426.01" y1="170.24" x2="203.52" y2="-135.67"/><line class="cls-10" x1="1357.32" y1="178.37" x2="139.27" y2="-96.53"/><line class="cls-10" x1="1288.63" y1="186.5" x2="75.01" y2="-57.4"/><line class="cls-10" x1="1219.94" y1="194.63" x2="10.76" y2="-18.27"/><line class="cls-10" x1="1151.24" y1="202.76" x2="-53.49" y2="20.87"/><line class="cls-10" x1="1082.55" y1="210.89" x2="-117.74" y2="60"/><line class="cls-10" x1="1013.86" y1="219.02" x2="-181.99" y2="99.14"/><line class="cls-10" x1="945.16" y1="227.14" x2="-246.25" y2="138.27"/></g></g><g class="cls-12"><g class="cls-13"><line class="cls-10" x1="1902.78" y1="-419.42" x2="3835.47" y2="711.74"/><line class="cls-10" x1="1846" y1="-415.18" x2="3772.29" y2="760.34"/></g></g><g class="cls-14"><g class="cls-15"><line class="cls-10" x1="604.63" y1="-478.72" x2="2626.91" y2="31.32"/><line class="cls-10" x1="547.86" y1="-474.48" x2="2563.73" y2="79.92"/><line class="cls-10" x1="491.08" y1="-470.25" x2="2500.56" y2="128.52"/><line class="cls-10" x1="434.31" y1="-466.01" x2="2437.38" y2="177.12"/><line class="cls-10" x1="377.53" y1="-461.77" x2="2374.21" y2="225.72"/><line class="cls-10" x1="320.75" y1="-457.54" x2="2311.04" y2="274.33"/><line class="cls-10" x1="263.98" y1="-453.3" x2="2247.86" y2="322.93"/><line class="cls-10" x1="207.2" y1="-449.07" x2="2184.69" y2="371.53"/><line class="cls-10" x1="150.43" y1="-444.83" x2="2121.51" y2="420.13"/><line class="cls-10" x1="93.65" y1="-440.6" x2="2058.34" y2="468.73"/><line class="cls-10" x1="36.88" y1="-436.36" x2="1995.16" y2="517.33"/><line class="cls-10" x1="-19.9" y1="-432.13" x2="1931.99" y2="565.93"/><line class="cls-10" x1="-76.67" y1="-427.89" x2="1868.81" y2="614.53"/><line class="cls-10" x1="-133.45" y1="-423.66" x2="1805.64" y2="663.13"/><line class="cls-10" x1="-190.22" y1="-419.42" x2="1742.47" y2="711.74"/><line class="cls-10" x1="-247" y1="-415.18" x2="1679.29" y2="760.34"/><line class="cls-10" x1="3005.95" y1="-260.29" x2="1681.33" y2="758.77"/><line class="cls-10" x1="2937.26" y1="-268.41" x2="1617.07" y2="719.63"/><line class="cls-10" x1="2868.57" y1="-276.54" x2="1552.82" y2="680.5"/><line class="cls-10" x1="2799.87" y1="-284.67" x2="1488.57" y2="641.37"/><line class="cls-10" x1="2731.18" y1="-292.8" x2="1424.32" y2="602.23"/><line class="cls-10" x1="2662.49" y1="-300.93" x2="1360.06" y2="563.1"/><line class="cls-10" x1="2593.79" y1="-309.06" x2="1295.81" y2="523.96"/><line class="cls-10" x1="2525.1" y1="-317.19" x2="1231.56" y2="484.83"/><line class="cls-10" x1="2456.41" y1="-325.31" x2="1167.31" y2="445.69"/><line class="cls-10" x1="2387.72" y1="-333.44" x2="1103.05" y2="406.56"/><line class="cls-10" x1="2319.02" y1="-341.57" x2="1038.8" y2="367.42"/><line class="cls-10" x1="2250.33" y1="-349.7" x2="974.55" y2="328.29"/><line class="cls-10" x1="2181.64" y1="-357.83" x2="910.3" y2="289.15"/><line class="cls-10" x1="2112.94" y1="-365.96" x2="846.04" y2="250.02"/><line class="cls-10" x1="2044.25" y1="-374.09" x2="781.79" y2="210.88"/><line class="cls-10" x1="1975.56" y1="-382.21" x2="717.54" y2="171.75"/><line class="cls-10" x1="1906.87" y1="-390.34" x2="653.29" y2="132.61"/><line class="cls-10" x1="1838.17" y1="-398.47" x2="589.03" y2="93.48"/><line class="cls-10" x1="1769.48" y1="-406.6" x2="524.78" y2="54.34"/><line class="cls-10" x1="1700.79" y1="-414.73" x2="460.53" y2="15.21"/></g></g></svg>